<mxfile host="app.diagrams.net" agent="Mozilla/5.0 (Windows NT 10.0; Win64; x64) AppleWebKit/537.36 (KHTML, like Gecko) Chrome/139.0.0.0 Safari/537.36" version="28.1.0">
  <diagram name="Page-1" id="dOSj8FbOc4rfu7ZQ6_md">
    <mxGraphModel dx="655" dy="414" grid="1" gridSize="10" guides="1" tooltips="1" connect="1" arrows="1" fold="1" page="1" pageScale="1" pageWidth="827" pageHeight="1169" math="0" shadow="0">
      <root>
        <mxCell id="0" />
        <mxCell id="1" parent="0" />
        <mxCell id="POnGZX_URE5P2htHHpKZ-21" style="edgeStyle=orthogonalEdgeStyle;rounded=0;orthogonalLoop=1;jettySize=auto;html=1;exitX=0.5;exitY=1;exitDx=0;exitDy=0;entryX=0.5;entryY=0;entryDx=0;entryDy=0;" edge="1" parent="1" source="POnGZX_URE5P2htHHpKZ-2" target="POnGZX_URE5P2htHHpKZ-4">
          <mxGeometry relative="1" as="geometry" />
        </mxCell>
        <mxCell id="POnGZX_URE5P2htHHpKZ-2" value="Start" style="rounded=1;whiteSpace=wrap;html=1;" vertex="1" parent="1">
          <mxGeometry x="350" y="100" width="80" height="20" as="geometry" />
        </mxCell>
        <mxCell id="POnGZX_URE5P2htHHpKZ-22" style="edgeStyle=orthogonalEdgeStyle;rounded=0;orthogonalLoop=1;jettySize=auto;html=1;entryX=0.5;entryY=0;entryDx=0;entryDy=0;" edge="1" parent="1" source="POnGZX_URE5P2htHHpKZ-4" target="POnGZX_URE5P2htHHpKZ-5">
          <mxGeometry relative="1" as="geometry" />
        </mxCell>
        <mxCell id="POnGZX_URE5P2htHHpKZ-4" value="Declare variables:&lt;br&gt;location, object (donated object)" style="rounded=0;whiteSpace=wrap;html=1;" vertex="1" parent="1">
          <mxGeometry x="330" y="140" width="120" height="60" as="geometry" />
        </mxCell>
        <mxCell id="POnGZX_URE5P2htHHpKZ-23" style="edgeStyle=orthogonalEdgeStyle;rounded=0;orthogonalLoop=1;jettySize=auto;html=1;entryX=0.5;entryY=0;entryDx=0;entryDy=0;" edge="1" parent="1" source="POnGZX_URE5P2htHHpKZ-5" target="POnGZX_URE5P2htHHpKZ-6">
          <mxGeometry relative="1" as="geometry" />
        </mxCell>
        <mxCell id="POnGZX_URE5P2htHHpKZ-5" value="Prompt user&lt;br&gt;to input object" style="shape=parallelogram;perimeter=parallelogramPerimeter;whiteSpace=wrap;html=1;fixedSize=1;" vertex="1" parent="1">
          <mxGeometry x="330" y="220" width="120" height="40" as="geometry" />
        </mxCell>
        <mxCell id="POnGZX_URE5P2htHHpKZ-24" style="edgeStyle=orthogonalEdgeStyle;rounded=0;orthogonalLoop=1;jettySize=auto;html=1;entryX=0.5;entryY=0;entryDx=0;entryDy=0;" edge="1" parent="1" source="POnGZX_URE5P2htHHpKZ-6" target="POnGZX_URE5P2htHHpKZ-7">
          <mxGeometry relative="1" as="geometry" />
        </mxCell>
        <mxCell id="POnGZX_URE5P2htHHpKZ-6" value="Retrieve location&lt;br&gt;from database" style="shape=parallelogram;perimeter=parallelogramPerimeter;whiteSpace=wrap;html=1;fixedSize=1;" vertex="1" parent="1">
          <mxGeometry x="330" y="280" width="120" height="40" as="geometry" />
        </mxCell>
        <mxCell id="POnGZX_URE5P2htHHpKZ-25" style="edgeStyle=orthogonalEdgeStyle;rounded=0;orthogonalLoop=1;jettySize=auto;html=1;entryX=0.5;entryY=0;entryDx=0;entryDy=0;" edge="1" parent="1" source="POnGZX_URE5P2htHHpKZ-7" target="POnGZX_URE5P2htHHpKZ-10">
          <mxGeometry relative="1" as="geometry" />
        </mxCell>
        <mxCell id="POnGZX_URE5P2htHHpKZ-7" value="Declare lists: nearby_locations, suitable_locations" style="rounded=0;whiteSpace=wrap;html=1;" vertex="1" parent="1">
          <mxGeometry x="330" y="340" width="120" height="60" as="geometry" />
        </mxCell>
        <mxCell id="POnGZX_URE5P2htHHpKZ-27" style="edgeStyle=orthogonalEdgeStyle;rounded=0;orthogonalLoop=1;jettySize=auto;html=1;entryX=0.5;entryY=0;entryDx=0;entryDy=0;" edge="1" parent="1" source="POnGZX_URE5P2htHHpKZ-8" target="POnGZX_URE5P2htHHpKZ-12">
          <mxGeometry relative="1" as="geometry" />
        </mxCell>
        <mxCell id="POnGZX_URE5P2htHHpKZ-8" value="For location in locations_nearby" style="rounded=0;whiteSpace=wrap;html=1;" vertex="1" parent="1">
          <mxGeometry x="330" y="480" width="120" height="60" as="geometry" />
        </mxCell>
        <mxCell id="POnGZX_URE5P2htHHpKZ-26" style="edgeStyle=orthogonalEdgeStyle;rounded=0;orthogonalLoop=1;jettySize=auto;html=1;entryX=0.5;entryY=0;entryDx=0;entryDy=0;" edge="1" parent="1" source="POnGZX_URE5P2htHHpKZ-10" target="POnGZX_URE5P2htHHpKZ-8">
          <mxGeometry relative="1" as="geometry" />
        </mxCell>
        <mxCell id="POnGZX_URE5P2htHHpKZ-10" value="Retrieve&lt;br&gt;locations_nearby" style="shape=parallelogram;perimeter=parallelogramPerimeter;whiteSpace=wrap;html=1;fixedSize=1;" vertex="1" parent="1">
          <mxGeometry x="330" y="420" width="120" height="40" as="geometry" />
        </mxCell>
        <mxCell id="POnGZX_URE5P2htHHpKZ-20" style="edgeStyle=orthogonalEdgeStyle;rounded=0;orthogonalLoop=1;jettySize=auto;html=1;entryX=0.5;entryY=0;entryDx=0;entryDy=0;" edge="1" parent="1" source="POnGZX_URE5P2htHHpKZ-12" target="POnGZX_URE5P2htHHpKZ-13">
          <mxGeometry relative="1" as="geometry" />
        </mxCell>
        <mxCell id="POnGZX_URE5P2htHHpKZ-12" value="for item in locations_nearby.needlist&amp;nbsp;" style="rounded=0;whiteSpace=wrap;html=1;" vertex="1" parent="1">
          <mxGeometry x="315" y="560" width="150" height="60" as="geometry" />
        </mxCell>
        <mxCell id="POnGZX_URE5P2htHHpKZ-14" style="edgeStyle=orthogonalEdgeStyle;rounded=0;orthogonalLoop=1;jettySize=auto;html=1;entryX=1;entryY=0.5;entryDx=0;entryDy=0;" edge="1" parent="1" source="POnGZX_URE5P2htHHpKZ-13" target="POnGZX_URE5P2htHHpKZ-12">
          <mxGeometry relative="1" as="geometry">
            <Array as="points">
              <mxPoint x="485" y="680" />
              <mxPoint x="485" y="590" />
            </Array>
          </mxGeometry>
        </mxCell>
        <mxCell id="POnGZX_URE5P2htHHpKZ-15" value="false" style="edgeLabel;html=1;align=center;verticalAlign=middle;resizable=0;points=[];" vertex="1" connectable="0" parent="POnGZX_URE5P2htHHpKZ-14">
          <mxGeometry x="-0.6616" y="1" relative="1" as="geometry">
            <mxPoint as="offset" />
          </mxGeometry>
        </mxCell>
        <mxCell id="POnGZX_URE5P2htHHpKZ-17" style="edgeStyle=orthogonalEdgeStyle;rounded=0;orthogonalLoop=1;jettySize=auto;html=1;entryX=0.5;entryY=0;entryDx=0;entryDy=0;" edge="1" parent="1" source="POnGZX_URE5P2htHHpKZ-13" target="POnGZX_URE5P2htHHpKZ-16">
          <mxGeometry relative="1" as="geometry">
            <Array as="points">
              <mxPoint x="320" y="680" />
            </Array>
          </mxGeometry>
        </mxCell>
        <mxCell id="POnGZX_URE5P2htHHpKZ-19" value="true" style="edgeLabel;html=1;align=center;verticalAlign=middle;resizable=0;points=[];" vertex="1" connectable="0" parent="POnGZX_URE5P2htHHpKZ-17">
          <mxGeometry x="-0.6574" y="-1" relative="1" as="geometry">
            <mxPoint as="offset" />
          </mxGeometry>
        </mxCell>
        <mxCell id="POnGZX_URE5P2htHHpKZ-13" value="if item == object" style="rhombus;whiteSpace=wrap;html=1;" vertex="1" parent="1">
          <mxGeometry x="350" y="640" width="80" height="80" as="geometry" />
        </mxCell>
        <mxCell id="POnGZX_URE5P2htHHpKZ-38" style="edgeStyle=orthogonalEdgeStyle;rounded=0;orthogonalLoop=1;jettySize=auto;html=1;entryX=0.5;entryY=0;entryDx=0;entryDy=0;" edge="1" parent="1" source="POnGZX_URE5P2htHHpKZ-16" target="POnGZX_URE5P2htHHpKZ-18">
          <mxGeometry relative="1" as="geometry" />
        </mxCell>
        <mxCell id="POnGZX_URE5P2htHHpKZ-42" style="edgeStyle=orthogonalEdgeStyle;rounded=0;orthogonalLoop=1;jettySize=auto;html=1;entryX=0;entryY=0.5;entryDx=0;entryDy=0;" edge="1" parent="1" source="POnGZX_URE5P2htHHpKZ-16" target="POnGZX_URE5P2htHHpKZ-12">
          <mxGeometry relative="1" as="geometry">
            <Array as="points">
              <mxPoint x="250" y="770" />
              <mxPoint x="250" y="590" />
            </Array>
          </mxGeometry>
        </mxCell>
        <mxCell id="POnGZX_URE5P2htHHpKZ-16" value="Add location to suitable_locations" style="shape=parallelogram;perimeter=parallelogramPerimeter;whiteSpace=wrap;html=1;fixedSize=1;" vertex="1" parent="1">
          <mxGeometry x="260" y="740" width="120" height="60" as="geometry" />
        </mxCell>
        <mxCell id="POnGZX_URE5P2htHHpKZ-33" style="edgeStyle=orthogonalEdgeStyle;rounded=0;orthogonalLoop=1;jettySize=auto;html=1;entryX=0.5;entryY=0;entryDx=0;entryDy=0;" edge="1" parent="1" source="POnGZX_URE5P2htHHpKZ-18" target="POnGZX_URE5P2htHHpKZ-32">
          <mxGeometry relative="1" as="geometry">
            <Array as="points">
              <mxPoint x="198" y="860" />
            </Array>
          </mxGeometry>
        </mxCell>
        <mxCell id="POnGZX_URE5P2htHHpKZ-36" value="False" style="edgeLabel;html=1;align=center;verticalAlign=middle;resizable=0;points=[];" vertex="1" connectable="0" parent="POnGZX_URE5P2htHHpKZ-33">
          <mxGeometry x="-0.4274" y="-1" relative="1" as="geometry">
            <mxPoint as="offset" />
          </mxGeometry>
        </mxCell>
        <mxCell id="POnGZX_URE5P2htHHpKZ-35" style="edgeStyle=orthogonalEdgeStyle;rounded=0;orthogonalLoop=1;jettySize=auto;html=1;entryX=0.5;entryY=0;entryDx=0;entryDy=0;" edge="1" parent="1" source="POnGZX_URE5P2htHHpKZ-18" target="POnGZX_URE5P2htHHpKZ-31">
          <mxGeometry relative="1" as="geometry">
            <Array as="points">
              <mxPoint x="448" y="860" />
              <mxPoint x="448" y="890" />
            </Array>
          </mxGeometry>
        </mxCell>
        <mxCell id="POnGZX_URE5P2htHHpKZ-37" value="True" style="edgeLabel;html=1;align=center;verticalAlign=middle;resizable=0;points=[];" vertex="1" connectable="0" parent="POnGZX_URE5P2htHHpKZ-35">
          <mxGeometry x="-0.5528" relative="1" as="geometry">
            <mxPoint as="offset" />
          </mxGeometry>
        </mxCell>
        <mxCell id="POnGZX_URE5P2htHHpKZ-18" value="if&lt;br&gt;suitable_locations == null" style="rhombus;whiteSpace=wrap;html=1;" vertex="1" parent="1">
          <mxGeometry x="265" y="820" width="110" height="80" as="geometry" />
        </mxCell>
        <mxCell id="POnGZX_URE5P2htHHpKZ-41" style="edgeStyle=orthogonalEdgeStyle;rounded=0;orthogonalLoop=1;jettySize=auto;html=1;" edge="1" parent="1" source="POnGZX_URE5P2htHHpKZ-31">
          <mxGeometry relative="1" as="geometry">
            <mxPoint x="320" y="970" as="targetPoint" />
          </mxGeometry>
        </mxCell>
        <mxCell id="POnGZX_URE5P2htHHpKZ-31" value="Display &quot;There are no suitable locations nearby&quot;" style="shape=parallelogram;perimeter=parallelogramPerimeter;whiteSpace=wrap;html=1;fixedSize=1;" vertex="1" parent="1">
          <mxGeometry x="370" y="890" width="155" height="60" as="geometry" />
        </mxCell>
        <mxCell id="POnGZX_URE5P2htHHpKZ-40" style="edgeStyle=orthogonalEdgeStyle;rounded=0;orthogonalLoop=1;jettySize=auto;html=1;entryX=0.5;entryY=0;entryDx=0;entryDy=0;" edge="1" parent="1" source="POnGZX_URE5P2htHHpKZ-32" target="POnGZX_URE5P2htHHpKZ-39">
          <mxGeometry relative="1" as="geometry" />
        </mxCell>
        <mxCell id="POnGZX_URE5P2htHHpKZ-32" value="Display list suitable_locations" style="shape=parallelogram;perimeter=parallelogramPerimeter;whiteSpace=wrap;html=1;fixedSize=1;" vertex="1" parent="1">
          <mxGeometry x="120" y="890" width="155" height="60" as="geometry" />
        </mxCell>
        <mxCell id="POnGZX_URE5P2htHHpKZ-39" value="Stop" style="rounded=1;whiteSpace=wrap;html=1;" vertex="1" parent="1">
          <mxGeometry x="282.5" y="970" width="75" height="20" as="geometry" />
        </mxCell>
      </root>
    </mxGraphModel>
  </diagram>
</mxfile>
